<?xml version="1.0" encoding="utf-8"?>
<!-- Generator: Adobe Illustrator 16.0.0, SVG Export Plug-In . SVG Version: 6.00 Build 0)  -->
<!DOCTYPE svg PUBLIC "-//W3C//DTD SVG 1.1//EN" "http://www.w3.org/Graphics/SVG/1.1/DTD/svg11.dtd">
<svg version="1.1" id="Capa_1" xmlns="http://www.w3.org/2000/svg" xmlns:xlink="http://www.w3.org/1999/xlink" x="0px" y="0px"
	 width="27.598px" height="27.598px" viewBox="0 0 27.598 27.598" enable-background="new 0 0 27.598 27.598" xml:space="preserve">
<g>
	<g>
		<polygon fill="#FFFFFF" points="4.022,9.9 3,21.899 7.799,21.899 6.778,9.9 		"/>
		<polygon fill="#FFFFFF" points="20.82,9.9 19.799,21.899 24.598,21.899 23.576,9.9 		"/>
		<rect x="1.255" y="23.099" fill="#FFFFFF" width="25.088" height="2.399"/>
		<rect x="0" y="26.098" fill="#FFFFFF" width="27.598" height="1.2"/>
		<path fill="#FFFFFF" d="M10.199,9.596l2.073,2.042L11.4,21.899h4.8l-0.875-10.262l2.073-2.042V8.698h9.602V6.696L13.799,0.3
			L0.6,6.696v2.003H10.2L10.199,9.596L10.199,9.596z M16.197,9.094l-2.397,2.362L11.4,9.094V5.698h4.8v3.396H16.197z"/>
	</g>
</g>
</svg>
