<?xml version="1.0" encoding="utf-8"?>
<!-- Generator: Adobe Illustrator 16.0.0, SVG Export Plug-In . SVG Version: 6.00 Build 0)  -->
<!DOCTYPE svg PUBLIC "-//W3C//DTD SVG 1.1//EN" "http://www.w3.org/Graphics/SVG/1.1/DTD/svg11.dtd">
<svg version="1.1" id="圖層_1" xmlns="http://www.w3.org/2000/svg" xmlns:xlink="http://www.w3.org/1999/xlink" x="0px" y="0px"
	 width="595.279px" height="595.281px" viewBox="0 0 595.279 595.281" enable-background="new 0 0 595.279 595.281"
	 xml:space="preserve">
<path fill="#383637" d="M427.411,207.753v-67.862l0,0v-19.049C427.411,51.194,364.31,0,297.64,0l0,0
	c-66.671,0-129.771,51.194-129.771,120.842v86.911c-13.097,3.572-22.621,15.478-22.621,30.955v24.405
	c0,15.479,8.931,27.384,22.621,30.955v79.767c0,4.764,1.785,9.525,5.357,12.502l83.339,83.34c3.571,3.57,7.738,5.357,12.501,5.357
	h57.742c4.762,0,9.523-1.787,12.501-5.357l83.339-83.34c3.571-3.572,5.357-7.738,5.357-12.502v-79.767
	c13.097-3.571,22.621-15.477,22.621-30.955v-24.405C450.031,223.231,440.508,211.325,427.411,207.753z M157.154,263.115v-24.406
	c0-8.334,4.167-15.478,10.716-18.454v22.025l0,0v39.289C161.321,278.592,157.154,271.449,157.154,263.115z M411.934,375.623
	l-83.34,83.34c-0.596,0.594-1.19,0.594-2.381,0.594h-57.742c-0.596,0-1.785-0.594-2.382-0.594l-83.339-83.34
	c-0.596-0.596-0.596-1.191-0.596-2.381V235.137l32.74-16.073v-96.436l197.633,116.08v135.127
	C412.529,374.431,412.529,375.623,411.934,375.623z M438.127,263.115c0,8.334-4.167,15.478-10.716,18.453v-61.313
	c6.549,2.977,10.716,10.12,10.716,18.454V263.115z"/>
<polygon fill="#383637" points="201.204,444.675 0,525.632 0,595.281 201.204,595.281 "/>
<polygon fill="#383637" points="394.075,444.675 595.28,525.632 595.28,595.281 394.075,595.281 "/>
</svg>
