<svg xmlns:dc="http://purl.org/dc/elements/1.1/" xmlns:cc="http://creativecommons.org/ns#" xmlns:rdf="http://www.w3.org/1999/02/22-rdf-syntax-ns#" xmlns:svg="http://www.w3.org/2000/svg" xmlns="http://www.w3.org/2000/svg" version="1.1" viewBox="0 0 100.00001 125" xml:space="preserve" x="0px" y="0px"><path d="m 79.46875,12.09375 c -8.578071,0 -15.5,6.967201 -15.5,15.53125 0,8.577747 6.921929,15.53125 15.5,15.53125 C 88.047002,43.15625 95,36.202747 95,27.625 95,19.060951 88.047002,12.09375 79.46875,12.09375 z m 0,2.6875 c 0.55638,0 1,0.458435 1,1 l 0,1.84375 0.03125,0 c 0.8343,0.08786 1.624541,0.283771 2.3125,0.5625 0.67338,0.292608 1.26879,0.757977 1.78125,1.34375 0.380519,0.453708 0.70123,0.89152 0.90625,1.375 0.2196,0.482759 0.34375,0.916878 0.34375,1.3125 0,0.439109 -0.17798,0.83405 -0.5,1.15625 -0.33678,0.336077 -0.71896,0.5 -1.1875,0.5 -0.863639,0 -1.438741,-0.485894 -1.6875,-1.4375 C 82.19065,21.368967 81.553899,20.632682 80.5,20.28125 l -0.03125,0 0,5.53125 0.03125,0 c 1.039319,0.307763 1.870541,0.547448 2.5,0.78125 0.64422,0.248958 1.23772,0.624886 1.75,1.09375 0.556199,0.482759 0.957321,1.045839 1.25,1.71875 0.29286,0.68823 0.4375,1.444339 0.4375,2.25 0,1.009709 -0.218961,1.934119 -0.6875,2.8125 -0.46836,0.878201 -1.156851,1.629282 -2.09375,2.15625 -0.9369,0.556721 -2.043851,0.866474 -3.15625,0.96875 l -0.03125,0 0,1.84375 c 0,0.556722 -0.44362,1.03125 -1,1.03125 -0.556199,0 -0.96875,-0.474528 -0.96875,-1.03125 l 0,-1.84375 C 77.592441,37.50591 76.71539,37.303349 75.96875,36.9375 75.192951,36.57165 74.54371,36.087251 74.03125,35.53125 73.504211,34.989684 73.12394,34.398256 72.875,33.8125 c -0.24876,-0.599669 -0.38958,-1.164227 -0.375,-1.75 0,-0.892799 0.783761,-1.626478 1.75,-1.65625 0.717299,-0.02759 1.31565,0.316167 1.59375,1.0625 0.248939,0.732438 0.41807,1.275964 0.59375,1.65625 0.38052,0.805679 1.154941,1.486427 2.0625,1.75 l 0,-6.1875 c -1.097819,-0.336816 -2.020031,-0.682016 -2.78125,-1.0625 -0.79056,-0.394884 -1.4398,-0.972416 -1.9375,-1.71875 -0.497699,-0.746855 -0.75,-1.672941 -0.75,-2.84375 0,-1.522241 0.471261,-2.769343 1.4375,-3.75 0.966059,-0.951623 2.464892,-1.509586 4.03125,-1.65625 l 0,-1.875 c 0,-0.541565 0.412551,-1 0.96875,-1 z m -60.625,4.40625 c -0.955867,-0.02172 -1.971301,0.09937 -3,0.375 C 13.786532,20.11375 12.091519,21.194534 11,22.5 c -1.0916988,1.305485 -1.5655696,2.878933 -1.15625,4.40625 0.35622,1.329604 1.323061,2.408052 2.625,3 L 9.5625,30.6875 A 0.30969056,0.30969056 0 0 0 9.34375,30.875 0.30969056,0.30969056 0 0 0 9.3125,30.96875 L 6.59375,62.78125 A 0.30969056,0.30969056 0 0 0 7,63.09375 l 38.28125,-10.25 A 0.30969056,0.30969056 0 0 0 45.4375,52.375 L 27.1875,26.15625 A 0.30969056,0.30969056 0 0 0 26.84375,26.0625 l -2.90625,0.78125 c 0.831779,-1.161233 1.13729,-2.608453 0.78125,-3.9375 C 24.30943,21.378951 23.098758,20.274263 21.5,19.6875 c -0.799289,-0.293427 -1.700383,-0.478281 -2.65625,-0.5 z M 78.5,20.21875 c -1.229579,0.32166 -2.14358,1.094669 -2.1875,2.5 -0.0144,0.68823 0.19847,1.227882 0.59375,1.59375 0.439199,0.395441 0.993631,0.655814 1.59375,0.875 l 0,-4.96875 z M 18.5625,21.625 c 0.652949,-0.0015 1.255561,0.09443 1.78125,0.25 1.051379,0.31113 1.84902,0.890929 2.0625,1.6875 0.2133,0.796356 -0.182401,1.704815 -0.9375,2.5 -0.755099,0.795132 -1.907461,1.513004 -3.375,1.90625 -1.468079,0.393335 -2.823621,0.342345 -3.875,0.03125 -1.051379,-0.311148 -1.84902,-0.891217 -2.0625,-1.6875 -0.21348,-0.796499 0.182401,-1.70476 0.9375,-2.5 0.75492,-0.795149 1.907282,-1.512932 3.375,-1.90625 0.733769,-0.196614 1.440801,-0.279778 2.09375,-0.28125 z m 61.90625,7.65625 0,5.75 c 0.70272,-0.131328 1.36863,-0.476744 1.96875,-1.0625 0.527039,-0.512531 0.75,-1.157719 0.75,-1.875 0,-0.761489 -0.250391,-1.356595 -0.71875,-1.78125 -0.54162,-0.468144 -1.25336,-0.78285 -2,-1.03125 z m 12.25,13.875 c -0.143807,0.0088 -0.292694,0.0237 -0.4375,0.0625 L 6.59375,66.1875 c -1.1584476,0.310405 -1.8416551,1.497802 -1.53125,2.65625 0.3104051,1.158448 1.4978024,1.841655 2.65625,1.53125 l 40.125,-10.75 0,23.9375 -6.25,0 c -1.199313,0 -2.15625,0.956937 -2.15625,2.15625 0,1.199313 0.956937,2.1875 2.15625,2.1875 l 16.8125,0 c 1.199313,0 2.15625,-0.988187 2.15625,-2.1875 0,-1.199313 -0.956937,-2.15625 -2.15625,-2.15625 l -6.25,0 0,-25.09375 41.25,-11.0625 C 94.564698,47.095845 95.247905,45.908448 94.9375,44.75 94.665896,43.736358 93.725402,43.094818 92.71875,43.15625 z" transform="translate(0,-5e-6)" style="text-indent:0;text-transform:none;direction:ltr;block-progression:tb;baseline-shift:baseline;color:#000000;enable-background:accumulate;" fill="#000000" fill-opacity="1" fill-rule="nonzero" stroke="none" visibility="visible" display="inline" overflow="visible"/></svg>