<?xml version="1.0" encoding="utf-8"?>
<!-- Generator: Adobe Illustrator 16.0.0, SVG Export Plug-In . SVG Version: 6.00 Build 0)  -->
<!DOCTYPE svg PUBLIC "-//W3C//DTD SVG 1.1//EN" "http://www.w3.org/Graphics/SVG/1.1/DTD/svg11.dtd">
<svg version="1.1"
	 id="圖層_1" xmlns:dc="http://purl.org/dc/elements/1.1/" xmlns:cc="http://creativecommons.org/ns#" xmlns:rdf="http://www.w3.org/1999/02/22-rdf-syntax-ns#" xmlns:svg="http://www.w3.org/2000/svg"
	 xmlns="http://www.w3.org/2000/svg" xmlns:xlink="http://www.w3.org/1999/xlink" x="0px" y="0px" width="841.891px"
	 height="595.281px" viewBox="0 0 841.891 595.281" enable-background="new 0 0 841.891 595.281" xml:space="preserve">
<path d="M652.737,0.453c-67.473,0-121.918,54.803-121.918,122.165c0,67.468,54.445,122.163,121.918,122.163
	c67.476,0,122.165-54.694,122.165-122.163C774.902,55.256,720.213,0.453,652.737,0.453z M652.737,21.593
	c4.377,0,7.866,3.604,7.866,7.865V43.96h0.245c6.563,0.692,12.778,2.232,18.19,4.424c5.297,2.302,9.98,5.964,14.012,10.57
	c2.992,3.569,5.514,7.013,7.127,10.815c1.728,3.798,2.704,7.213,2.704,10.325c0,3.453-1.4,6.56-3.933,9.094
	c-2.648,2.644-5.655,3.934-9.341,3.934c-6.793,0-11.316-3.823-13.273-11.307c-2.187-8.405-7.194-14.197-15.486-16.96h-0.245v43.507
	h0.245c8.177,2.421,14.714,4.307,19.666,6.146c5.066,1.958,9.734,4.915,13.765,8.602c4.375,3.798,7.529,8.226,9.831,13.52
	c2.304,5.413,3.442,11.36,3.442,17.697c0,7.942-1.724,15.213-5.409,22.122c-3.684,6.909-9.098,12.817-16.467,16.96
	c-7.371,4.379-16.077,6.816-24.828,7.622h-0.245v14.502c0,4.379-3.489,8.111-7.866,8.111c-4.374,0-7.619-3.732-7.619-8.111v-14.502
	c-7.138-0.692-14.037-2.286-19.909-5.163c-6.104-2.877-11.21-6.688-15.241-11.06c-4.146-4.26-7.136-8.912-9.094-13.521
	c-1.957-4.716-3.064-9.157-2.95-13.765c0-7.023,6.165-12.792,13.765-13.028c5.643-0.216,10.349,2.487,12.536,8.358
	c1.959,5.762,3.289,10.036,4.67,13.028c2.993,6.335,9.086,11.691,16.224,13.763v-48.668c-8.635-2.65-15.89-5.365-21.877-8.356
	c-6.219-3.106-11.325-7.649-15.239-13.521c-3.915-5.875-5.899-13.159-5.899-22.369c0-11.973,3.707-21.781,11.307-29.497
	c7.6-7.484,19.389-11.873,31.709-13.026V29.457C645.118,25.197,648.363,21.593,652.737,21.593z M175.879,56.251
	c-7.518-0.171-15.505,0.78-23.596,2.95c-16.183,4.336-29.514,12.836-38.1,23.104c-8.587,10.27-12.315,22.646-9.096,34.659
	c2.802,10.457,10.407,18.941,20.648,23.596l-22.859,6.146c-0.783,0.179-1.424,0.73-1.721,1.474
	c-0.121,0.232-0.203,0.481-0.245,0.739L79.525,399.146c-0.081,1.343,0.943,2.496,2.286,2.577c0.308,0.017,0.616-0.022,0.91-0.12
	l301.109-80.622c1.274-0.432,1.958-1.813,1.529-3.088c-0.073-0.213-0.174-0.414-0.3-0.6l-143.55-206.23
	c-0.656-0.792-1.737-1.085-2.705-0.737l-22.859,6.146c6.542-9.134,8.946-20.517,6.146-30.973
	c-3.219-12.014-12.742-20.702-25.319-25.317C190.486,57.875,183.397,56.421,175.879,56.251z M645.118,64.362
	c-9.672,2.529-16.86,8.61-17.206,19.664c-0.112,5.413,1.562,9.658,4.67,12.536c3.455,3.11,7.816,5.159,12.536,6.883V64.362z
	 M173.668,75.423c5.135-0.012,9.874,0.743,14.01,1.966c8.27,2.448,14.544,7.008,16.223,13.274
	c1.678,6.264-1.436,13.409-7.374,19.664c-5.939,6.253-15.004,11.9-26.547,14.994c-11.547,3.094-22.21,2.692-30.48,0.245
	c-8.27-2.447-14.543-7.01-16.223-13.273c-1.679-6.265,1.436-13.409,7.375-19.664c5.938-6.255,15.002-11.901,26.547-14.995
	C162.97,76.088,168.531,75.435,173.668,75.423z M660.603,135.644v45.228c5.527-1.033,10.765-3.749,15.486-8.357
	c4.146-4.031,5.898-9.107,5.898-14.748c0-5.99-1.97-10.671-5.653-14.012C672.075,140.073,666.476,137.599,660.603,135.644z
	 M756.959,244.781c-1.132,0.07-2.303,0.187-3.441,0.492L79.525,425.938c-9.113,2.442-14.486,11.781-12.045,20.894
	c2.442,9.112,11.781,14.485,20.894,12.046l315.611-84.558v188.285h-49.161c-9.433,0-16.961,7.528-16.961,16.961
	c0,9.434,7.528,17.205,16.961,17.205h132.242c9.435,0,16.961-7.771,16.961-17.205c0-9.433-7.526-16.961-16.961-16.961h-49.159
	V365.224l324.46-87.013c9.111-2.442,14.486-11.783,12.045-20.895C772.274,249.344,764.876,244.299,756.959,244.781z"/>
</svg>
