<svg xmlns="http://www.w3.org/2000/svg" xmlns:xlink="http://www.w3.org/1999/xlink" version="1.1" x="0px" y="0px" viewBox="286.583 0 100 125" enable-background="new 286.583 0 100 100" xml:space="preserve"><g><g><circle cx="296.898" cy="48.572" r="6.03"/><path d="M296.898,48.57"/></g><g><circle cx="336.605" cy="42.542" r="6.03"/><path d="M336.605,42.54"/></g><g><path d="M292.316,61.935c-1.084-6.938,8.926-9.048,10.536-1.953l2.725,13.595l10.172,0.021c2.972,0,4.516,2.374,4.516,4.575    v18.479c0,4.486-6.389,4.467-6.389-0.081c0-4.218,0-14.383,0-14.383h-12.993c-3.03,0-4.93-2.077-5.406-4.454L292.316,61.935z"/></g><g><path d="M309.111,83.4c3.374,0,3.358,4.993,0.047,4.993h-9.332c-4.534,0-9.057-3.408-10.24-8.673l-2.908-14.127    c-0.59-3.209,4.028-4.278,4.71-0.994l2.757,13.518c0.771,3.443,3.325,5.283,6.415,5.283H309.111z"/></g><g><g><circle cx="376.31" cy="48.572" r="6.03"/><path d="M376.31,48.57"/></g><g><path d="M380.893,61.935c1.084-6.938-8.926-9.048-10.536-1.953l-2.726,13.595l-10.172,0.021c-2.971,0-4.516,2.374-4.516,4.575     v18.479c0,4.486,6.391,4.467,6.391-0.081c0-4.218,0-14.383,0-14.383h12.992c3.029,0,4.93-2.077,5.406-4.454L380.893,61.935z"/></g><g><path d="M364.098,83.4c-3.374,0-3.358,4.993-0.048,4.993h9.332c4.534,0,9.06-3.408,10.243-8.673l2.906-14.127     c0.589-3.209-4.029-4.278-4.71-0.994l-2.757,13.518c-0.771,3.443-3.325,5.283-6.414,5.283H364.098z"/></g></g><path d="M343.711,50.73h-0.595h-13.01h-0.013c-0.004,0-0.009,0.001-0.013,0.001c-4.281,0.015-6.964,3.506-6.964,7.872v5.135h4.781   h1.523h1.153v-5.367h11.984v5.367h1.986h1.495h4.749v-5.025C350.79,54.688,348.429,50.73,343.711,50.73z"/><path d="M360.619,65.047h-12.008h-24.014h-12.007c-1.378,0-2.495,1.117-2.495,2.494c0,1.378,1.117,2.493,2.495,2.493h12.007h8.584   v0.382v23.292v1.304h-7.389c-1.377,0-2.494,1.118-2.494,2.494c0,1.377,1.117,2.494,2.494,2.494h10.288h1.048h10.287   c1.377,0,2.495-1.117,2.495-2.494c0-1.376-1.118-2.494-2.495-2.494h-7.389v-1.304V70.416v-0.382h8.584h12.008   c1.377,0,2.494-1.115,2.494-2.493C363.113,66.164,361.996,65.047,360.619,65.047z"/></g></svg>