<svg xmlns:dc="http://purl.org/dc/elements/1.1/" xmlns:cc="http://creativecommons.org/ns#" xmlns:rdf="http://www.w3.org/1999/02/22-rdf-syntax-ns#" xmlns:svg="http://www.w3.org/2000/svg" xmlns="http://www.w3.org/2000/svg" version="1.1" viewBox="0 0 100.00001 125" xml:space="preserve" x="0px" y="0px"><path d="m 50,5 c -11.702842,0 -25.75,8.754264 -25.75,26.21875 0,10.166194 4.39743,15.477149 8.125,21.3125 1.918348,3.002718 3.459993,7.061984 3.8125,8.5625 1.171334,4.985249 0.744781,7.4027 2.40625,9.0625 0.05625,0.02798 0.118874,0.06735 0.1875,0.09375 -0.015,0.583323 0.01495,1.175602 0,1.75 -0.02681,1.044901 0.829856,1.90625 1.875,1.90625 l 18.6875,0 c 1.045519,0 1.892626,-0.861162 1.875,-1.90625 -0.0094,-0.597311 0,-1.226809 0,-1.75 0.06863,-0.0264 0.131249,-0.06578 0.1875,-0.09375 1.661469,-1.6598 1.234729,-4.077251 2.40625,-9.0625 0.352694,-1.500328 1.925402,-5.559782 3.84375,-8.5625 C 71.384007,46.695936 75.75,41.384944 75.75,31.21875 75.75,13.754264 61.702842,5 50,5 z m 0,7.15625 c 0.982331,0 1.78125,0.798994 1.78125,1.78125 l 0,3.125 c 1.50509,0.143891 2.94929,0.492053 4.15625,1 1.206397,0.521147 2.257358,1.318887 3.15625,2.375 0.709888,0.804259 1.238743,1.617034 1.625,2.46875 0.385695,0.852222 0.59375,1.633993 0.59375,2.34375 0,0.788321 -0.298802,1.456496 -0.875,2.03125 -0.576011,0.57618 -1.273422,0.875 -2.09375,0.875 -1.545967,0 -2.542867,-0.828744 -3,-2.5 -0.502697,-1.903835 -1.691778,-3.206456 -3.5625,-3.875 l 0,9.84375 c 1.859097,0.514866 3.350292,0.980073 4.46875,1.40625 1.159896,0.441158 2.209983,1.070622 3.125,1.90625 0.97708,0.867672 1.72124,1.918547 2.25,3.125 0.528198,1.206454 0.78125,2.533448 0.78125,3.96875 0,1.798421 -0.406235,3.462333 -1.25,5.03125 -0.843954,1.569704 -2.078657,2.850225 -3.71875,3.84375 -1.689407,0.940893 -3.664776,1.508239 -5.65625,1.71875 l 0,3.15625 c 0,0.982237 -0.798919,1.78125 -1.78125,1.78125 -0.982143,0 -1.78125,-0.799013 -1.78125,-1.78125 l 0,-3.15625 C 46.603032,52.455328 45.084837,52.064736 43.75,51.4375 42.369599,50.775219 41.204329,49.954549 40.28125,48.96875 39.358357,47.983456 38.691196,46.940301 38.25,45.875 37.808805,44.810505 37.59375,43.775569 37.59375,42.75 c 0.02419,-1.61073 1.366468,-2.849967 3.09375,-2.96875 1.256273,0.01144 2.303428,0.572013 2.8125,1.90625 0.426008,1.293512 0.777994,2.282619 1.09375,2.96875 0.674075,1.432808 2.027845,2.590552 3.625,3.15625 l 0,-11.0625 C 46.259338,36.191914 44.62115,35.552431 43.28125,34.875 41.861098,34.157668 40.696016,33.138056 39.8125,31.8125 38.928796,30.487769 38.5,28.800414 38.5,26.71875 c 0,-2.712257 0.866843,-4.95298 2.59375,-6.6875 1.713969,-1.713031 4.355948,-2.646907 7.125,-2.9375 l 0,-3.15625 c 0,-0.982256 0.799107,-1.78125 1.78125,-1.78125 z m -1.78125,9.53125 c -2.192104,0.559267 -3.72356,1.953585 -3.84375,4.4375 0,1.246035 0.337487,2.173882 1.03125,2.8125 0.780764,0.704563 1.75873,1.204342 2.8125,1.59375 l 0,-8.84375 z m 3.5625,16.125 0,10.1875 c 1.223835,-0.227385 2.404792,-0.820918 3.5,-1.84375 0.866828,-0.96148 1.28125,-2.065688 1.28125,-3.34375 0,-1.372056 -0.405672,-2.438142 -1.25,-3.1875 -0.956268,-0.829422 -2.214601,-1.370179 -3.53125,-1.8125 z m -11.125,37.71875 c -1.045235,0 -1.875,0.829765 -1.875,1.875 0,1.045235 0.829765,1.875 1.875,1.875 l 18.6875,0 c 1.045235,0 1.875,-0.829765 1.875,-1.875 0,-1.045235 -0.829765,-1.875 -1.875,-1.875 l -18.6875,0 z m 0,5.375 c -1.045235,0 -1.875,0.829765 -1.875,1.875 0,1.045235 0.829765,1.90625 1.875,1.90625 l 18.6875,0 c 1.045235,0 1.875,-0.861015 1.875,-1.90625 0,-1.045235 -0.829765,-1.875 -1.875,-1.875 l -18.6875,0 z m 0,5.40625 c -1.045235,0 -1.875,0.829765 -1.875,1.875 0,1.045235 0.829765,1.875 1.875,1.875 l 18.6875,0 c 1.045235,0 1.875,-0.829765 1.875,-1.875 0,-1.045235 -0.829765,-1.875 -1.875,-1.875 l -18.6875,0 z m 4.3125,5.375 C 44.599181,91.6935 44.250194,91.72966 43.875,91.75 45.213025,93.716499 47.442077,95 50,95 c 2.541609,0 4.783788,-1.273195 6.125,-3.21875 -3.38875,0.08177 -6.772937,-0.108377 -10.15625,-0.0625 -0.322318,-0.02162 -0.669056,-0.03641 -1,-0.03125 z" transform="translate(0,-5e-6)" style="" fill="#000000" fill-opacity="1"/></svg>