<?xml version="1.0" encoding="utf-8"?>
<!-- Generator: Adobe Illustrator 16.0.0, SVG Export Plug-In . SVG Version: 6.00 Build 0)  -->
<!DOCTYPE svg PUBLIC "-//W3C//DTD SVG 1.1//EN" "http://www.w3.org/Graphics/SVG/1.1/DTD/svg11.dtd">
<svg version="1.1" id="圖層_1" xmlns="http://www.w3.org/2000/svg" xmlns:xlink="http://www.w3.org/1999/xlink" x="0px" y="0px"
	 width="841.891px" height="595.281px" viewBox="0 0 841.891 595.281" enable-background="new 0 0 841.891 595.281"
	 xml:space="preserve">
<g>
	<polygon points="291.472,479.745 377.961,479.745 334.712,364.44 	"/>
	<polygon points="463.908,479.745 550.412,479.745 507.171,364.44 	"/>
	<path d="M59.837,289.594v63.769h67.709V594.94h589.799V353.37h64.709v-63.776H59.837L59.837,289.594z M564.678,486.722
		c-0.131,0.709-0.397,1.373-0.76,2.039c-0.058,0.051-0.058,0.158-0.101,0.254c-0.045,0.043-0.088,0.058-0.131,0.093
		c-0.412,0.543-0.89,1.049-1.482,1.476c0,0-21.548,25.46-55.034,25.46c-32.837,0-55.036-25.46-55.036-25.46
		c-0.578-0.44-1.056-0.933-1.48-1.476c-0.03-0.035-0.088-0.05-0.116-0.093c-0.029-0.096-0.029-0.203-0.103-0.254
		c-0.382-0.666-0.636-1.345-0.759-2.039c-0.028-0.203-0.086-0.361-0.129-0.543c-0.073-0.736-0.029-1.496,0.181-2.204
		c0.028-0.131,0.129-0.167,0.129-0.231c0.03-0.051,0-0.139,0.03-0.153l48.751-130.084h-23.35h-44.471l-0.144,179.386h41.462v19.683
		H368.633v-19.683h42.402l0.007-179.386h-44.499h-23.327l48.772,130.084c0.015,0.03,0,0.11,0.015,0.153
		c0.015,0.064,0.087,0.123,0.123,0.231c0.196,0.708,0.253,1.468,0.159,2.204c-0.015,0.182-0.051,0.34-0.079,0.543
		c-0.153,0.709-0.399,1.373-0.761,2.039c-0.071,0.051-0.071,0.158-0.122,0.254c-0.015,0.043-0.103,0.058-0.103,0.093
		c-0.433,0.543-0.896,1.049-1.474,1.476c0,0-22.214,25.46-55.057,25.46c-33.45,0-55.035-25.46-55.035-25.46
		c-0.607-0.44-1.077-0.933-1.511-1.476c0-0.035-0.028-0.05-0.065-0.093c-0.072-0.096-0.072-0.203-0.108-0.254
		c-0.405-0.666-0.651-1.345-0.774-2.039c-0.043-0.203-0.078-0.361-0.093-0.543c-0.087-0.736-0.037-1.496,0.188-2.204
		c0.028-0.131,0.065-0.167,0.108-0.231c0.015-0.051,0-0.139,0.015-0.153l51.751-138.066c0,0,0.036-0.021,0.073-0.037
		c0.825-2.212,2.949-3.788,5.452-3.788h31.114h45.237v-21.644h0.093h9.763h0.065h9.746h0.116v21.65h45.252h31.101
		c2.501,0,4.62,1.592,5.452,3.789c0.028,0.015,0.071,0.035,0.071,0.035l51.745,138.068c0.043,0.029,0,0.108,0.043,0.152
		c0.029,0.065,0.072,0.122,0.13,0.231c0.182,0.709,0.225,1.468,0.151,2.205C564.751,486.368,564.706,486.519,564.678,486.722z"/>
</g>
<circle cx="217.427" cy="131.677" r="39.416"/>
<circle cx="321.451" cy="131.677" r="39.416"/>
<circle cx="267.906" cy="39.75" r="39.409"/>
<circle cx="374.323" cy="39.75" r="39.409"/>
<circle cx="475.268" cy="39.75" r="39.409"/>
<circle cx="575.706" cy="39.75" r="39.409"/>
<circle cx="527.085" cy="131.677" r="39.416"/>
<path d="M424.802,92.268c21.751,0,39.401,17.629,39.401,39.416c0,21.75-17.636,39.409-39.401,39.409
	c-21.802,0-39.416-17.644-39.416-39.409C385.387,109.905,403.001,92.268,424.802,92.268z"/>
<path d="M630.704,92.268c21.765,0,39.416,17.629,39.416,39.416c0,21.75-17.651,39.409-39.417,39.409
	c-21.808,0-39.416-17.644-39.416-39.409C591.288,109.905,608.91,92.268,630.704,92.268z"/>
<path d="M307.337,264.819v-27.918c0-26.168-15.396-51.816-46.019-51.816l-88.362-0.043c-27.903,0-45.411,22.748-45.411,51.137v28.64
	H307.337z"/>
<path d="M514.684,264.819v-27.918c0-26.168-15.396-51.816-46.026-51.816l-88.362-0.043c-27.89,0-45.374,22.748-45.374,51.137v28.64
	H514.684z"/>
<path d="M720.584,264.819v-27.918c0-26.168-15.409-51.816-46.024-51.816l-88.355-0.043c-27.889,0-45.374,22.748-45.374,51.137v28.64
	H720.584z"/>
</svg>
