<?xml version="1.0" encoding="utf-8"?>
<!-- Generator: Adobe Illustrator 16.0.0, SVG Export Plug-In . SVG Version: 6.00 Build 0)  -->
<!DOCTYPE svg PUBLIC "-//W3C//DTD SVG 1.1//EN" "http://www.w3.org/Graphics/SVG/1.1/DTD/svg11.dtd">
<svg version="1.1" id="圖層_1" xmlns="http://www.w3.org/2000/svg" xmlns:xlink="http://www.w3.org/1999/xlink" x="0px" y="0px"
	 width="841.891px" height="595.281px" viewBox="0 0 841.891 595.281" enable-background="new 0 0 841.891 595.281"
	 xml:space="preserve">
<g>
	<g>
		<circle cx="89.228" cy="128.852" r="50.521"/>
		<path d="M89.228,128.836"/>
	</g>
	<g>
		<circle cx="421.904" cy="78.33" r="50.521"/>
		<path d="M421.904,78.313"/>
	</g>
	<g>
		<path d="M50.839,240.811c-9.082-58.129,74.784-75.808,88.274-16.363l22.83,113.901l85.224,0.178
			c24.9,0,37.836,19.89,37.836,38.331v154.821c0,37.585-53.528,37.427-53.528-0.681c0-35.338,0-120.503,0-120.503h-108.86
			c-25.385,0-41.304-17.402-45.292-37.316L50.839,240.811z"/>
	</g>
	<g>
		<path d="M191.552,420.65c28.268,0,28.133,41.831,0.394,41.831H113.76c-37.987,0-75.882-28.55-85.795-72.664L3.601,271.458
			c-4.943-26.886,33.748-35.842,39.462-8.328l23.098,113.257c6.459,28.847,27.858,44.263,53.749,44.263H191.552L191.552,420.65z"/>
	</g>
	<g>
		<g>
			<circle cx="754.564" cy="128.852" r="50.521"/>
			<path d="M754.564,128.836"/>
		</g>
		<g>
			<path d="M792.96,240.811c9.082-58.129-74.783-75.808-88.272-16.363l-22.839,113.901l-85.225,0.178
				c-24.892,0-37.835,19.89-37.835,38.331v154.821c0,37.585,53.546,37.427,53.546-0.681c0-35.338,0-120.503,0-120.503h108.85
				c25.379,0,41.304-17.402,45.295-37.316L792.96,240.811z"/>
		</g>
		<g>
			<path d="M652.248,420.65c-28.269,0-28.135,41.831-0.402,41.831h78.187c37.987,0,75.907-28.55,85.819-72.664l24.346-118.359
				c4.936-26.886-33.754-35.842-39.46-8.328l-23.101,113.257c-6.459,28.847-27.855,44.263-53.736,44.263H652.248L652.248,420.65z"/>
		</g>
	</g>
	<path d="M481.439,146.932h-4.984h-109h-0.11c-0.033,0-0.076,0.008-0.108,0.008c-35.869,0.126-58.346,29.375-58.346,65.954v43.021
		h40.055h12.76h9.661v-44.965h100.406v44.965h16.64h12.524h39.788v-42.101C540.75,180.093,520.969,146.932,481.439,146.932z"/>
	<path d="M623.098,266.885H522.493H321.299H220.699c-11.545,0-20.904,9.358-20.904,20.896c0,11.544,9.358,20.886,20.904,20.886
		h100.599h71.918v3.202v195.146v10.924h-61.907c-11.537,0-20.896,9.365-20.896,20.896c0,11.538,9.359,20.896,20.896,20.896h86.196
		h8.779h86.188c11.537,0,20.903-9.357,20.903-20.896c0-11.53-9.366-20.896-20.903-20.896h-61.907v-10.924V311.868v-3.202h71.92
		H623.09c11.538,0,20.896-9.342,20.896-20.886C643.996,276.242,634.636,266.885,623.098,266.885z"/>
</g>
</svg>
