<svg version="1.1"
	 id="圖層_1" xmlns:dc="http://purl.org/dc/elements/1.1/" xmlns:cc="http://creativecommons.org/ns#" xmlns:rdf="http://www.w3.org/1999/02/22-rdf-syntax-ns#" xmlns:svg="http://www.w3.org/2000/svg"
	 xmlns="http://www.w3.org/2000/svg" xmlns:xlink="http://www.w3.org/1999/xlink" x="0px" y="0px" width="841.891px"
	 height="595.281px" viewBox="0 0 841.891 595.281" enable-background="new 0 0 841.891 595.281" xml:space="preserve">
<path d="M420.945,0.769c-77.207,0-169.877,57.752-169.877,172.969c0,67.066,29.01,102.105,53.602,140.602
	c12.656,19.809,22.827,46.588,25.152,56.487c7.728,32.889,4.914,48.837,15.874,59.786c0.371,0.184,0.783,0.444,1.237,0.619
	c-0.099,3.849,0.098,7.755,0,11.545c-0.178,6.894,5.475,12.575,12.37,12.575h123.284c6.897,0,12.486-5.681,12.37-12.575
	c-0.063-3.941,0-8.093,0-11.545c0.452-0.175,0.866-0.436,1.237-0.619c10.96-10.949,8.145-26.897,15.873-59.786
	c2.327-9.898,12.702-36.679,25.357-56.487c24.594-38.497,53.396-73.536,53.396-140.602C590.821,58.522,498.15,0.769,420.945,0.769z
	 M420.945,47.981c6.479,0,11.75,5.271,11.75,11.75v20.616c9.93,0.95,19.458,3.247,27.42,6.598
	c7.959,3.438,14.892,8.701,20.822,15.667c4.684,5.306,8.173,10.669,10.721,16.287c2.544,5.623,3.917,10.781,3.917,15.463
	c0,5.2-1.972,9.608-5.772,13.399c-3.8,3.802-8.401,5.773-13.813,5.773c-10.199,0-16.777-5.467-19.792-16.493
	c-3.315-12.56-11.16-21.153-23.503-25.564v64.941c12.266,3.396,22.103,6.465,29.481,9.276c7.652,2.912,14.579,7.063,20.617,12.576
	c6.445,5.724,11.354,12.657,14.843,20.616c3.485,7.96,5.154,16.714,5.154,26.183c0,11.864-2.682,22.841-8.247,33.191
	c-5.567,10.355-13.713,18.803-24.533,25.358c-11.145,6.207-24.176,9.949-37.315,11.339v20.823c0,6.479-5.271,11.75-11.75,11.75
	c-6.48,0-11.752-5.271-11.752-11.75v-20.823c-10.659-1.118-20.675-3.695-29.481-7.834c-9.106-4.37-16.794-9.783-22.883-16.287
	c-6.09-6.5-10.49-13.382-13.401-20.41c-2.91-7.023-4.329-13.851-4.329-20.616c0.159-10.627,9.015-18.802,20.41-19.585
	c8.288,0.076,15.196,3.773,18.554,12.576c2.811,8.534,5.132,15.058,7.215,19.585c4.447,9.452,13.379,17.09,23.915,20.823v-72.981
	c-12.927-3.683-23.733-7.901-32.572-12.371c-9.37-4.732-17.056-11.459-22.885-20.203c-5.829-8.739-8.658-19.871-8.658-33.604
	c0-17.893,5.718-32.675,17.11-44.119c11.307-11.3,28.737-17.461,47.005-19.377V59.731C409.193,53.251,414.465,47.981,420.945,47.981
	z M409.193,110.859c-14.461,3.689-24.565,12.889-25.358,29.275c0,8.22,2.227,14.341,6.804,18.554
	c5.15,4.648,11.603,7.945,18.554,10.515V110.859z M432.695,217.238v67.209c8.074-1.5,15.864-5.416,23.09-12.164
	c5.719-6.344,8.453-13.628,8.453-22.059c0-9.052-2.676-16.085-8.246-21.029C449.683,223.723,441.382,220.156,432.695,217.238z
	 M359.302,466.074c-6.896,0-12.37,5.474-12.37,12.37c0,6.896,5.473,12.368,12.37,12.368h123.284c6.896,0,12.37-5.473,12.37-12.368
	c0-6.896-5.475-12.37-12.37-12.37H359.302z M359.302,501.534c-6.896,0-12.37,5.474-12.37,12.369s5.473,12.576,12.37,12.576h123.284
	c6.896,0,12.37-5.681,12.37-12.576s-5.475-12.369-12.37-12.369H359.302z M359.302,537.2c-6.896,0-12.37,5.474-12.37,12.369
	c0,6.895,5.473,12.37,12.37,12.37h123.284c6.896,0,12.37-5.476,12.37-12.37c0-6.896-5.475-12.369-12.37-12.369H359.302z
	 M387.753,572.659c-2.439,0.039-4.74,0.278-7.215,0.413c8.827,12.973,23.532,21.439,40.408,21.439
	c16.767,0,31.559-8.398,40.408-21.234c-22.358,0.54-44.684-0.714-67.004-0.412C392.223,572.722,389.936,572.626,387.753,572.659z"/>
</svg>
