<?xml version="1.0" encoding="utf-8"?>
<!-- Generator: Adobe Illustrator 16.0.0, SVG Export Plug-In . SVG Version: 6.00 Build 0)  -->
<!DOCTYPE svg PUBLIC "-//W3C//DTD SVG 1.1//EN" "http://www.w3.org/Graphics/SVG/1.1/DTD/svg11.dtd">
<svg version="1.1" id="圖層_1" xmlns="http://www.w3.org/2000/svg" xmlns:xlink="http://www.w3.org/1999/xlink" x="0px" y="0px"
	 width="595.279px" height="595.281px" viewBox="0 0 595.279 595.281" enable-background="new 0 0 595.279 595.281"
	 xml:space="preserve">
<path fill="#383637" d="M446.461,465.509V224.42v-11.905V138.7C446.461,58.337,373.837,0,297.64,0l0,0
	c-76.195,0-148.82,58.337-148.82,138.7v74.41v11.905v241.089L0,525.632v69.648h268.472l-38.692-86.91l-4.763-70.244l35.717,43.455
	c2.977,3.572,7.738,5.357,11.905,5.357h50.599c4.764,0,8.93-1.785,11.906-5.357l35.717-43.455l-4.763,70.244l-39.288,86.91H595.28
	v-69.648L446.461,465.509z M323.832,471.462l-0.596,0.596h-50.599c0,0-0.596,0-0.596-0.596l-80.361-97.627l-0.596-0.594
	c-0.596-0.596-0.596-1.191-0.596-2.383V224.42h67.862v-57.147l97.626,57.147h50.003v145.845c0,1.189-0.595,1.785-0.595,2.381
	l-0.597,0.596L323.832,471.462z"/>
</svg>
